<svg width="54" height="58" viewBox="0 0 54 58" fill="none" xmlns="http://www.w3.org/2000/svg">
<path d="M44.0816 17.6225C48.2707 17.6225 51.6666 14.2266 51.6666 10.0375C51.6666 5.84843 48.2707 2.45251 44.0816 2.45251C39.8925 2.45251 36.4967 5.84843 36.4967 10.0375C36.4967 14.2266 39.8925 17.6225 44.0816 17.6225Z" stroke="white" stroke-width="3" stroke-miterlimit="10" stroke-linecap="round" stroke-linejoin="round"/>
<path d="M9.91833 17.6225C14.1074 17.6225 17.5033 14.2266 17.5033 10.0375C17.5033 5.84843 14.1074 2.45251 9.91833 2.45251C5.72925 2.45251 2.33331 5.84843 2.33331 10.0375C2.33331 14.2266 5.72925 17.6225 9.91833 17.6225Z" stroke="white" stroke-width="3" stroke-miterlimit="10" stroke-linecap="round" stroke-linejoin="round"/>
<path d="M44.0816 55.5475C48.2707 55.5475 51.6666 52.1516 51.6666 47.9625C51.6666 43.7734 48.2707 40.3775 44.0816 40.3775C39.8925 40.3775 36.4967 43.7734 36.4967 47.9625C36.4967 52.1516 39.8925 55.5475 44.0816 55.5475Z" stroke="white" stroke-width="3" stroke-miterlimit="10" stroke-linecap="round" stroke-linejoin="round"/>
<path d="M9.91833 55.5475C14.1074 55.5475 17.5033 52.1516 17.5033 47.9625C17.5033 43.7734 14.1074 40.3775 9.91833 40.3775C5.72925 40.3775 2.33331 43.7734 2.33331 47.9625C2.33331 52.1516 5.72925 55.5475 9.91833 55.5475Z" stroke="white" stroke-width="3" stroke-miterlimit="10" stroke-linecap="round" stroke-linejoin="round"/>
</svg>
